<svg version="1.1" xmlns="http://www.w3.org/2000/svg" width="461.46" height="187.37" viewBox="0 0 461.46 187.37">
    <title>ArenaNet</title>

    <path id="arena" d="M4.94,69.27V43.83q22.59-9.43,46.13-17v9.85q18.51-6,37.57-10.82V16.26q20-4.92,40.6-8.42v9.48q18.58-3.22,37.57-5.21V2.73Q186.9,0.67,207.4,0V9.33Q216.74,9,226.18,9T245,9.33V0q20.49,0.66,40.6,2.73v9.38q19,2,37.57,5.21V7.85q20.56,3.49,40.6,8.43v9.63q19.05,4.77,37.57,10.82V26.87q23.52,7.52,46.13,17V69.27a554,554,0,0,0-442.5,0h0Zm221.25-34A538.31,538.31,0,0,0,4.94,82.46V122.3H51.07v-23a18.79,18.79,0,0,1,37.57,0v23h40.6V90.41a18.78,18.78,0,1,1,37.57,0v31.9h40.6V85.54a18.78,18.78,0,1,1,37.56,0v36.77h40.6V90.41a18.79,18.79,0,0,1,37.57,0V122.3h40.6v-23a18.78,18.78,0,1,1,37.56,0v23h46.13V82.46A538.25,538.25,0,0,0,226.18,35.22h0Z" fill="#fe0000"/>
    <path id="text1" d="M275.74,182.1h10L265,142.19h-9.88l-20.4,39.91h9.83l3.48-7.6h24.12l3.59,7.6h0Zm-24.65-14.25,8.83-19.27,9.1,19.28H251.09Z" fill="white"/>
    <path id="text2" d="M94.54,167.6h6.77a5.73,5.73,0,0,0,6.09-5.74V149.54s0-5.59-6.71-5.59H68.76V182.1h8.13V167.46h7.89l14.65,14.65H111l-16.48-14.5h0ZM97,150.51c2.75,0,2.75,3.36,2.75,3.36v4.27a2.86,2.86,0,0,1-3,3.06H76.9V150.51H97Zm30,31.58h37.7v-6.82H135.38v-10H152.5v-6.26H135.38v-8.48h29V144H126.91M360,182.11h37.48v-6.47H368.2V165.47h17.13v-6.25H368.2v-8.6h29v-6.44H359.78M181.71,182.1V144h6.05l27.53,25.42V144h6.48V182.1h-5.4l-28.23-26v26m108.47,4.77,6.91,0.1V151.92L337.94,187l6-.1V138.69h-6.5V173.5L303.5,138.69h-6.86m110.76,5.42h41.2v6.36H432.07V182.1h-8.59V150.47H407.4m50.9-2.7a1.33,1.33,0,0,0,.93-1.32,1.36,1.36,0,0,0-.47-1.07,2.16,2.16,0,0,0-1.44-.41H455v5.1h1V148h1.36l0.85,2.11h1l-1-2.27,0.06,0h0Zm-1.14-.52h-1.21v-1.59h1.3a0.78,0.78,0,0,1,1,.78,0.84,0.84,0,0,1-1,.81h0Z" fill="white"/>
    <path id="text3" d="M460.16,144.36A4.26,4.26,0,0,0,457,143a4.47,4.47,0,0,0,0,8.95,4.27,4.27,0,0,0,3.14-1.32,4.47,4.47,0,0,0,0-6.31h0Zm-0.49,5.9a3.7,3.7,0,0,1-5.33,0,3.93,3.93,0,0,1,0-5.48,3.63,3.63,0,0,1,2.69-1.14,3.58,3.58,0,0,1,2.65,1.14,3.94,3.94,0,0,1,0,5.47h0ZM47.76,187.37h9.87L33,138h-8.6L0,187.37H10.13l4.78-10.24H42.82l4.94,10.24h0ZM17.94,170.63L28.63,147.7l11.06,22.93H17.94Z" fill="white"/>
</svg>
